<svg width="24" height="24" viewBox="0 0 24 24" fill="none" xmlns="http://www.w3.org/2000/svg">
<path d="M12.5887 4.19305L17.651 6.44105C19.1096 7.08457 19.1096 8.14851 17.651 8.79202L12.5887 11.04C12.0138 11.2974 11.07 11.2974 10.4951 11.04L5.43284 8.79202C3.97421 8.14851 3.97421 7.08457 5.43284 6.44105L10.4951 4.19305C11.07 3.93565 12.0138 3.93565 12.5887 4.19305Z" stroke="#9192AD" stroke-width="1.5" stroke-linecap="round" stroke-linejoin="round"/>
<path d="M4 11.125C4 11.8457 4.54055 12.678 5.20122 12.9697L11.0271 15.5609C11.4733 15.7583 11.9795 15.7583 12.4171 15.5609L18.2431 12.9697C18.9037 12.678 19.4443 11.8457 19.4443 11.125" stroke="#9192AD" stroke-width="1.5" stroke-linecap="round" stroke-linejoin="round"/>
<path d="M4 15.4141C4 16.212 4.47191 16.9327 5.20122 17.2588L11.0271 19.85C11.4733 20.0473 11.9795 20.0473 12.4171 19.85L18.2431 17.2588C18.9724 16.9327 19.4443 16.212 19.4443 15.4141" stroke="#9192AD" stroke-width="1.5" stroke-linecap="round" stroke-linejoin="round"/>
</svg>
