<svg width="52" height="72" viewBox="0 0 52 72" fill="none" xmlns="http://www.w3.org/2000/svg">
<path fill-rule="evenodd" clip-rule="evenodd" d="M0 25.92C0 11.6048 11.6048 0 25.92 0C40.2352 0 51.84 11.6048 51.84 25.92C51.84 37.7653 43.8942 47.7549 33.0419 50.8493C31.3158 51.3415 29.5596 52.067 28.6684 53.625C28.3075 54.256 28.017 54.9299 27.8054 55.6354L26.3989 60.3236C26.2564 60.7987 25.5836 60.7987 25.4411 60.3236L24.0346 55.6354C23.823 54.9299 23.5325 54.256 23.1716 53.625C22.2804 52.067 20.5242 51.3415 18.7981 50.8493C7.94579 47.7549 0 37.7653 0 25.92ZM23.04 69.12C23.04 67.5294 24.3294 66.24 25.92 66.24C27.5106 66.24 28.8 67.5294 28.8 69.12C28.8 70.7106 27.5106 72 25.92 72C24.3294 72 23.04 70.7106 23.04 69.12Z" fill="white"/>
</svg>
