<svg width="92" height="112" viewBox="0 0 92 112" fill="none" xmlns="http://www.w3.org/2000/svg">
<g filter="url(#filter0_d_718_44759)">
<g filter="url(#filter1_d_718_44759)">
<path fill-rule="evenodd" clip-rule="evenodd" d="M20 39.92C20 25.6048 31.6048 14 45.92 14C60.2352 14 71.84 25.6048 71.84 39.92C71.84 51.7653 63.8942 61.7549 53.0419 64.8493C51.3158 65.3415 49.5596 66.067 48.6684 67.625C48.3075 68.256 48.017 68.9299 47.8054 69.6354L46.3989 74.3236C46.2564 74.7987 45.5836 74.7987 45.4411 74.3236L44.0346 69.6354C43.823 68.9299 43.5325 68.256 43.1716 67.625C42.2804 66.067 40.5242 65.3415 38.7981 64.8493C27.9458 61.7549 20 51.7653 20 39.92ZM43.04 83.12C43.04 81.5294 44.3294 80.24 45.92 80.24C47.5106 80.24 48.8 81.5294 48.8 83.12C48.8 84.7106 47.5106 86 45.92 86C44.3294 86 43.04 84.7106 43.04 83.12Z" fill="white"/>
</g>
<circle cx="45.9199" cy="39.9228" r="23.04" fill="#FF3A81"/>
<path d="M55.491 45.9971C55.491 46.3427 55.4142 46.6979 55.251 47.0435C55.0878 47.3891 54.8766 47.7155 54.5982 48.0227C54.1278 48.5411 53.6094 48.9155 53.0238 49.1555C52.4478 49.3955 51.8238 49.5203 51.1518 49.5203C50.1726 49.5203 49.1262 49.2899 48.0222 48.8195C46.9182 48.3491 45.8142 47.7155 44.7198 46.9187C43.6044 46.1028 42.5518 45.2043 41.571 44.2307C40.6002 43.2534 39.7049 42.204 38.8926 41.0915C38.1054 39.9971 37.4718 38.9027 37.011 37.8179C36.5502 36.7235 36.3198 35.6771 36.3198 34.6787C36.3198 34.0259 36.435 33.4019 36.6654 32.8259C36.8958 32.2403 37.2606 31.7027 37.7694 31.2227C38.3838 30.6179 39.0558 30.3203 39.7662 30.3203C40.035 30.3203 40.3038 30.3779 40.5438 30.4931C40.7934 30.6083 41.0142 30.7811 41.187 31.0307L43.4142 34.1699C43.587 34.4099 43.7118 34.6307 43.7982 34.8419C43.8846 35.0435 43.9326 35.2451 43.9326 35.4275C43.9326 35.6579 43.8654 35.8883 43.731 36.1091C43.6062 36.3299 43.4238 36.5603 43.1934 36.7907L42.4638 37.5491C42.3582 37.6547 42.3102 37.7795 42.3102 37.9331C42.3102 38.0099 42.3198 38.0771 42.339 38.1539C42.3678 38.2307 42.3966 38.2883 42.4158 38.3459C42.5886 38.6627 42.8862 39.0755 43.3086 39.5747C43.7406 40.0739 44.2014 40.5827 44.7006 41.0915C45.219 41.6003 45.7182 42.0707 46.227 42.5027C46.7262 42.9251 47.139 43.2131 47.4654 43.3859C47.5134 43.4051 47.571 43.4339 47.6382 43.4627C47.715 43.4915 47.7918 43.5011 47.8782 43.5011C48.0414 43.5011 48.1662 43.4435 48.2718 43.3379L49.0014 42.6179C49.2414 42.3779 49.4718 42.1955 49.6926 42.0803C49.9134 41.9459 50.1342 41.8787 50.3742 41.8787C50.5566 41.8787 50.7486 41.9171 50.9598 42.0035C51.171 42.0899 51.3918 42.2147 51.6318 42.3779L54.8094 44.6339C55.059 44.8067 55.2318 45.0083 55.3374 45.2483C55.4334 45.4883 55.491 45.7283 55.491 45.9971Z" stroke="white" stroke-width="1.5" stroke-miterlimit="10"/>
<path d="M52.1598 37.0403C52.1598 36.4643 51.7086 35.5811 51.0366 34.8611C50.4222 34.1987 49.6062 33.6803 48.7998 33.6803M55.5198 37.0403C55.5198 33.3251 52.515 30.3203 48.7998 30.3203" stroke="white" stroke-width="1.5" stroke-linecap="round" stroke-linejoin="round"/>
</g>
<defs>
<filter id="filter0_d_718_44759" x="4" y="6" width="83.8398" height="104" filterUnits="userSpaceOnUse" color-interpolation-filters="sRGB">
<feFlood flood-opacity="0" result="BackgroundImageFix"/>
<feColorMatrix in="SourceAlpha" type="matrix" values="0 0 0 0 0 0 0 0 0 0 0 0 0 0 0 0 0 0 127 0" result="hardAlpha"/>
<feOffset dy="8"/>
<feGaussianBlur stdDeviation="8"/>
<feComposite in2="hardAlpha" operator="out"/>
<feColorMatrix type="matrix" values="0 0 0 0 0.27451 0 0 0 0 0.560784 0 0 0 0 0.772549 0 0 0 0.08 0"/>
<feBlend mode="normal" in2="BackgroundImageFix" result="effect1_dropShadow_718_44759"/>
<feBlend mode="normal" in="SourceGraphic" in2="effect1_dropShadow_718_44759" result="shape"/>
</filter>
<filter id="filter1_d_718_44759" x="0" y="0" width="91.8398" height="112" filterUnits="userSpaceOnUse" color-interpolation-filters="sRGB">
<feFlood flood-opacity="0" result="BackgroundImageFix"/>
<feColorMatrix in="SourceAlpha" type="matrix" values="0 0 0 0 0 0 0 0 0 0 0 0 0 0 0 0 0 0 127 0" result="hardAlpha"/>
<feOffset dy="6"/>
<feGaussianBlur stdDeviation="10"/>
<feColorMatrix type="matrix" values="0 0 0 0 0.0235294 0 0 0 0 0.0196078 0 0 0 0 0.196078 0 0 0 0.1 0"/>
<feBlend mode="normal" in2="BackgroundImageFix" result="effect1_dropShadow_718_44759"/>
<feBlend mode="normal" in="SourceGraphic" in2="effect1_dropShadow_718_44759" result="shape"/>
</filter>
</defs>
</svg>
