<svg width="92" height="112" viewBox="0 0 92 112" fill="none" xmlns="http://www.w3.org/2000/svg">
<g filter="url(#filter0_d_718_44539)">
<g filter="url(#filter1_d_718_44539)">
<path fill-rule="evenodd" clip-rule="evenodd" d="M20 39.92C20 25.6048 31.6048 14 45.92 14C60.2352 14 71.84 25.6048 71.84 39.92C71.84 51.7653 63.8942 61.7549 53.0419 64.8493C51.3158 65.3415 49.5596 66.067 48.6684 67.625C48.3075 68.256 48.017 68.9299 47.8054 69.6354L46.3989 74.3236C46.2564 74.7987 45.5836 74.7987 45.4411 74.3236L44.0346 69.6354C43.823 68.9299 43.5325 68.256 43.1716 67.625C42.2804 66.067 40.5242 65.3415 38.7981 64.8493C27.9458 61.7549 20 51.7653 20 39.92ZM43.04 83.12C43.04 81.5294 44.3294 80.24 45.92 80.24C47.5106 80.24 48.8 81.5294 48.8 83.12C48.8 84.7106 47.5106 86 45.92 86C44.3294 86 43.04 84.7106 43.04 83.12Z" fill="white"/>
</g>
<circle cx="45.9199" cy="39.9228" r="23.04" fill="#1AB9EB"/>
<path d="M55.7598 34.525V45.325C55.7598 48.565 54.1398 50.725 50.3598 50.725H41.7198C37.9398 50.725 36.3198 48.565 36.3198 45.325V34.525C36.3198 31.285 37.9398 29.125 41.7198 29.125H50.3598C54.1398 29.125 55.7598 31.285 55.7598 34.525Z" stroke="white" stroke-width="1.5" stroke-miterlimit="10" stroke-linecap="round" stroke-linejoin="round"/>
<path d="M48.7397 31.8281V33.9881C48.7397 35.1761 49.7117 36.1481 50.8997 36.1481H53.0597M41.7197 41.0081H46.0397M41.7197 45.3281H50.3597" stroke="white" stroke-width="1.5" stroke-miterlimit="10" stroke-linecap="round" stroke-linejoin="round"/>
</g>
<defs>
<filter id="filter0_d_718_44539" x="4" y="6" width="83.8398" height="104" filterUnits="userSpaceOnUse" color-interpolation-filters="sRGB">
<feFlood flood-opacity="0" result="BackgroundImageFix"/>
<feColorMatrix in="SourceAlpha" type="matrix" values="0 0 0 0 0 0 0 0 0 0 0 0 0 0 0 0 0 0 127 0" result="hardAlpha"/>
<feOffset dy="8"/>
<feGaussianBlur stdDeviation="8"/>
<feComposite in2="hardAlpha" operator="out"/>
<feColorMatrix type="matrix" values="0 0 0 0 0.27451 0 0 0 0 0.560784 0 0 0 0 0.772549 0 0 0 0.08 0"/>
<feBlend mode="normal" in2="BackgroundImageFix" result="effect1_dropShadow_718_44539"/>
<feBlend mode="normal" in="SourceGraphic" in2="effect1_dropShadow_718_44539" result="shape"/>
</filter>
<filter id="filter1_d_718_44539" x="0" y="0" width="91.8398" height="112" filterUnits="userSpaceOnUse" color-interpolation-filters="sRGB">
<feFlood flood-opacity="0" result="BackgroundImageFix"/>
<feColorMatrix in="SourceAlpha" type="matrix" values="0 0 0 0 0 0 0 0 0 0 0 0 0 0 0 0 0 0 127 0" result="hardAlpha"/>
<feOffset dy="6"/>
<feGaussianBlur stdDeviation="10"/>
<feColorMatrix type="matrix" values="0 0 0 0 0.0235294 0 0 0 0 0.0196078 0 0 0 0 0.196078 0 0 0 0.1 0"/>
<feBlend mode="normal" in2="BackgroundImageFix" result="effect1_dropShadow_718_44539"/>
<feBlend mode="normal" in="SourceGraphic" in2="effect1_dropShadow_718_44539" result="shape"/>
</filter>
</defs>
</svg>
