<?xml version="1.0" standalone="no"?>
<!DOCTYPE svg PUBLIC "-//W3C//DTD SVG 20010904//EN"
 "http://www.w3.org/TR/2001/REC-SVG-20010904/DTD/svg10.dtd">
<svg version="1.0" xmlns="http://www.w3.org/2000/svg"
 width="240.000000pt" height="240.000000pt" viewBox="0 0 240.000000 240.000000"
 preserveAspectRatio="xMidYMid meet">
<metadata>
Created by potrace 1.14, written by Peter Selinger 2001-2017
</metadata>
<g transform="translate(0.000000,240.000000) scale(0.100000,-0.100000)"
fill="#000000" stroke="none">
<path d="M1 1898 l0 -503 28 95 c38 131 66 191 109 233 47 46 109 73 197 87
90 14 176 42 241 79 110 63 218 189 276 321 46 104 117 162 219 179 36 6 -136
9 -508 10 l-563 1 1 -502z"/>
<path d="M1329 2389 c66 -11 131 -48 165 -92 13 -17 45 -73 70 -122 102 -204
278 -332 501 -365 101 -15 148 -35 194 -85 58 -63 106 -171 130 -296 6 -27 9
146 10 464 l1 507 -562 -1 c-373 -1 -545 -4 -509 -10z"/>
<path d="M769 1764 c-151 -113 -278 -214 -283 -224 -16 -34 1 -66 46 -88 68
-31 367 -152 378 -152 5 0 33 24 63 53 29 29 74 63 99 76 72 35 72 33 64 194
-12 261 -17 299 -42 324 -13 13 -29 23 -37 23 -8 0 -138 -92 -288 -206z"/>
<path d="M1302 1952 c-15 -15 -20 -48 -30 -198 -16 -245 -16 -278 6 -295 9 -8
39 -25 66 -39 26 -13 65 -43 84 -67 27 -32 43 -43 64 -43 41 0 389 145 411
171 20 25 22 49 5 71 -28 34 -549 418 -568 418 -11 0 -28 -8 -38 -18z"/>
<path d="M415 1275 c-14 -13 -25 -29 -25 -35 0 -15 200 -650 211 -672 11 -21
52 -33 72 -21 24 13 287 346 287 363 0 8 -12 37 -26 64 -14 27 -32 83 -39 124
-7 41 -18 79 -24 85 -9 9 -390 116 -419 117 -7 0 -24 -11 -37 -25z"/>
<path d="M1735 1245 c-208 -56 -225 -65 -225 -115 0 -37 -28 -129 -51 -166
-10 -17 -19 -40 -19 -51 0 -11 62 -97 137 -192 125 -156 139 -171 168 -171 18
0 39 8 47 18 9 9 62 165 118 345 l103 329 -20 26 c-11 15 -29 28 -39 29 -10 1
-109 -22 -219 -52z"/>
<path d="M1 648 l-1 -648 338 0 c298 1 333 2 299 15 -93 33 -259 166 -305 244
-26 44 -27 51 -23 156 10 287 7 345 -21 423 -36 99 -78 167 -165 262 -71 78
-98 119 -114 170 -4 14 -8 -266 -8 -622z"/>
<path d="M2381 1240 c-8 -26 -39 -69 -94 -128 -94 -102 -138 -170 -175 -274
-22 -64 -26 -89 -26 -203 0 -71 3 -169 8 -217 9 -83 8 -89 -18 -142 -40 -81
-213 -226 -312 -261 -35 -13 -1 -14 299 -15 l337 0 0 640 c0 352 -2 640 -3
640 -2 0 -9 -18 -16 -40z"/>
<path d="M1145 1256 c-62 -27 -90 -107 -59 -171 58 -122 237 -85 237 50 0 103
-86 161 -178 121z"/>
<path d="M1063 834 c-16 -7 -243 -377 -243 -396 0 -9 9 -27 21 -42 l20 -26
338 0 c368 0 381 2 381 57 0 30 -222 398 -246 407 -8 3 -36 1 -60 -5 -41 -11
-126 -8 -179 5 -11 3 -25 3 -32 0z"/>
<path d="M1051 126 c-30 -8 -96 -35 -147 -61 -50 -25 -104 -50 -120 -55 -17
-5 149 -8 411 -8 328 0 432 2 410 10 -16 6 -57 26 -91 45 -106 58 -167 75
-294 79 -77 2 -133 -1 -169 -10z"/>
</g>
</svg>
