<svg width="20" height="20" viewBox="0 0 20 20" fill="none" xmlns="http://www.w3.org/2000/svg">
<g id="Group 49">
<path id="Vector" d="M10.1799 9.82104L8.91087 11.09C8.20887 11.792 8.20887 12.935 8.91087 13.637C9.61287 14.339 10.7559 14.339 11.4579 13.637L13.4559 11.639C14.1301 10.9629 14.5087 10.0469 14.5087 9.09204C14.5087 8.13715 14.1301 7.22122 13.4559 6.54504C12.7797 5.87081 11.8638 5.49219 10.9089 5.49219C9.95398 5.49219 9.03805 5.87081 8.36187 6.54504L6.18387 8.72304C5.8971 9.00956 5.66961 9.34979 5.5144 9.72428C5.35919 10.0988 5.2793 10.5002 5.2793 10.9055C5.2793 11.3109 5.35919 11.7123 5.5144 12.0868C5.66961 12.4613 5.8971 12.8015 6.18387 13.088" stroke="#9192AD" stroke-width="1.5" stroke-linecap="round" stroke-linejoin="round"/>
<path id="Vector_2" d="M10 19C14.9707 19 19 14.9707 19 10C19 5.0293 14.9707 1 10 1C5.0293 1 1 5.0293 1 10C1 14.9707 5.0293 19 10 19Z" stroke="#9192AD" stroke-width="1.5" stroke-linecap="round" stroke-linejoin="round"/>
</g>
</svg>
