<svg width="20" height="20" viewBox="0 0 20 20" fill="none" xmlns="http://www.w3.org/2000/svg">
<g id="Group 216">
<path id="Vector" d="M6.4 13.6H4.087C2.026 13.6 1 12.574 1 10.513V4.087C1 2.026 2.026 1 4.087 1H8.2C10.261 1 11.287 2.026 11.287 4.087" stroke="#262F3D" stroke-width="1.5" stroke-linecap="round" stroke-linejoin="round"/>
<path id="Vector_2" d="M12.5829 12.6984H15.5169M14.0499 14.1654V11.2314M15.9129 18.9984H11.7999C9.73889 18.9984 8.71289 17.9724 8.71289 15.9114V9.48544C8.71289 7.42444 9.73889 6.39844 11.7999 6.39844H15.9129C17.9739 6.39844 18.9999 7.42444 18.9999 9.48544V15.9114C18.9999 17.9724 17.9739 18.9984 15.9129 18.9984Z" stroke="#262F3D" stroke-width="1.5" stroke-linecap="round" stroke-linejoin="round"/>
</g>
</svg>
