<svg width="20" height="17" viewBox="0 0 20 17" fill="none" xmlns="http://www.w3.org/2000/svg">
<g id="Group 41">
<path id="Vector" d="M13.2926 8.61311C13.2926 10.4343 11.821 11.9059 9.99983 11.9059C8.17867 11.9059 6.70703 10.4343 6.70703 8.61311C6.70703 6.79195 8.17867 5.32031 9.99983 5.32031C11.821 5.32031 13.2926 6.79195 13.2926 8.61311Z" stroke="#468FC5" stroke-width="1.5" stroke-linecap="round" stroke-linejoin="round"/>
<path id="Vector_2" d="M10 16.2223C13.2468 16.2223 16.2729 14.3091 18.3792 10.998C19.207 9.70107 19.207 7.52121 18.3792 6.22432C16.2729 2.91313 13.2468 1 10 1C6.75319 1 3.72713 2.91313 1.62085 6.22432C0.793051 7.52121 0.793051 9.70107 1.62085 10.998C3.72713 14.3091 6.75319 16.2223 10 16.2223Z" stroke="#468FC5" stroke-width="1.5" stroke-linecap="round" stroke-linejoin="round"/>
</g>
</svg>
