<svg width="24" height="24" viewBox="0 0 24 24" fill="none" xmlns="http://www.w3.org/2000/svg">
<g id="Iconsax/Linear/location">
<g id="Group 36">
<path id="Vector" d="M11.7623 13.2892C12.1311 13.2892 12.4964 13.2166 12.8371 13.0754C13.1779 12.9343 13.4875 12.7274 13.7483 12.4666C14.0091 12.2058 14.216 11.8961 14.3572 11.5554C14.4983 11.2146 14.571 10.8494 14.571 10.4806C14.571 10.1117 14.4983 9.74648 14.3572 9.40572C14.216 9.06495 14.0091 8.75533 13.7483 8.49452C13.4875 8.23371 13.1779 8.02682 12.8371 7.88567C12.4964 7.74452 12.1311 7.67187 11.7623 7.67188C11.0174 7.67188 10.303 7.96779 9.77626 8.49452C9.24953 9.02125 8.95361 9.73564 8.95361 10.4806C8.95361 11.2255 9.24953 11.9399 9.77626 12.4666C10.303 12.9933 11.0174 13.2892 11.7623 13.2892Z" stroke="#9192AD" stroke-width="1.5"/>
<path id="Vector_2" d="M4.21853 8.84241C5.99196 1.04653 17.5417 1.05553 19.3062 8.85141C20.3414 13.4245 17.4967 17.2954 15.0031 19.69C14.1318 20.5304 12.9684 21 11.7578 21C10.5473 21 9.38391 20.5304 8.51257 19.69C6.02797 17.2954 3.18328 13.4155 4.21853 8.84241Z" stroke="#9192AD" stroke-width="1.5"/>
</g>
</g>
</svg>
