<svg width="24" height="24" viewBox="0 0 24 24" fill="none" xmlns="http://www.w3.org/2000/svg">
<g id="Iconsax/Linear/pausecircle">
<path id="Vector" d="M10.355 17.2809V7.31906C10.355 6.37406 9.96125 6 8.95719 6H6.39781C5.39375 6 5 6.37406 5 7.31906V17.2809C5 18.2259 5.39375 18.6 6.39781 18.6H8.9375C9.96125 18.6 10.355 18.2259 10.355 17.2809ZM19 17.2809V7.31906C19 6.37406 18.6063 6 17.6022 6H15.0625C14.0584 6 13.6647 6.37406 13.6647 7.31906V17.2809C13.6647 18.2259 14.0584 18.6 15.0625 18.6H17.6022C18.6063 18.6 19 18.2259 19 17.2809Z" stroke="#468FC5" stroke-width="1.5" stroke-linecap="round" stroke-linejoin="round"/>
</g>
</svg>
