<svg width="24" height="24" viewBox="0 0 24 24" fill="none" xmlns="http://www.w3.org/2000/svg">
<g id="Iconsax/Linear/people" opacity="0.5">
<path id="Vector" d="M16.4691 14.1946C17.7019 14.4016 19.0607 14.1856 20.0146 13.5467C21.2835 12.7008 21.2835 11.315 20.0146 10.4691C19.0517 9.83015 17.6749 9.61417 16.4421 9.83015M7.49719 14.1946C6.26434 14.4016 4.90551 14.1856 3.95163 13.5467C2.68279 12.7008 2.68279 11.315 3.95163 10.4691C4.91451 9.83015 6.29134 9.61417 7.52418 9.83015M17.3959 7.64342C17.3393 7.63441 17.2816 7.63441 17.225 7.64342C16.6244 7.6217 16.0558 7.36734 15.6394 6.93409C15.2229 6.50085 14.9912 5.92265 14.9933 5.32171C14.9933 4.03487 16.0281 3 17.315 3C17.9307 3 18.5213 3.24461 18.9567 3.68001C19.3921 4.11542 19.6367 4.70595 19.6367 5.32171C19.635 5.92308 19.4009 6.50052 18.9833 6.93324C18.5657 7.36596 17.9969 7.62043 17.3959 7.64342ZM6.5703 7.64342C6.6243 7.63442 6.68729 7.63442 6.74128 7.64342C7.34184 7.6217 7.91042 7.36734 8.32688 6.93409C8.74333 6.50085 8.97503 5.92265 8.973 5.32171C8.973 4.03487 7.93813 3 6.65129 3C6.03554 3 5.445 3.24461 5.0096 3.68001C4.57419 4.11542 4.32958 4.70595 4.32958 5.32171C4.33858 6.58155 5.32846 7.59842 6.5703 7.64342ZM11.9966 14.3656C11.94 14.3566 11.8823 14.3566 11.8256 14.3656C11.2251 14.3439 10.6565 14.0895 10.2401 13.6563C9.8236 13.223 9.5919 12.6448 9.59393 12.0439C9.59393 10.757 10.6288 9.72216 11.9156 9.72216C12.5314 9.72216 13.1219 9.96677 13.5573 10.4022C13.9927 10.8376 14.2373 11.4281 14.2373 12.0439C14.2283 13.3037 13.2385 14.3296 11.9966 14.3656ZM9.37795 17.2002C8.10911 18.0461 8.10911 19.4319 9.37795 20.2778C10.8178 21.2407 13.1755 21.2407 14.6153 20.2778C15.8841 19.4319 15.8841 18.0461 14.6153 17.2002C13.1845 16.2463 10.8178 16.2463 9.37795 17.2002Z" stroke="white" stroke-width="1.5" stroke-linecap="round" stroke-linejoin="round"/>
</g>
</svg>
