<svg width="24" height="24" viewBox="0 0 24 24" fill="none" xmlns="http://www.w3.org/2000/svg">
<path d="M12.1076 12.6997C12.0359 12.6907 11.9633 12.6907 11.8916 12.6997C11.1283 12.674 10.405 12.3526 9.87429 11.8035C9.3436 11.2543 9.04716 10.5204 9.04759 9.75669C9.04759 8.12769 10.3616 6.80469 11.9996 6.80469C12.7731 6.80335 13.5161 7.10602 14.0685 7.64745C14.6209 8.18889 14.9384 8.92571 14.9526 9.69908C14.9668 10.4724 14.6765 11.2204 14.1443 11.7817C13.6121 12.343 12.8806 12.6727 12.1076 12.6997ZM18.0656 18.6397C16.4116 20.1599 14.246 21.0017 11.9996 20.9977C9.65959 20.9977 7.53559 20.1067 5.93359 18.6397C6.02359 17.7937 6.56359 16.9657 7.52659 16.3177C9.99259 14.6797 14.0246 14.6797 16.4726 16.3177C17.4356 16.9657 17.9756 17.7937 18.0656 18.6397Z" stroke="#9192AD" stroke-width="1.5" stroke-linecap="round" stroke-linejoin="round"/>
<path d="M12 21C16.9707 21 21 16.9707 21 12C21 7.0293 16.9707 3 12 3C7.0293 3 3 7.0293 3 12C3 16.9707 7.0293 21 12 21Z" stroke="#9192AD" stroke-width="1.5" stroke-linecap="round" stroke-linejoin="round"/>
</svg>
