<svg width="24" height="24" viewBox="0 0 24 24" fill="none" xmlns="http://www.w3.org/2000/svg">
<g id="Iconsax/Linear/receiptedit" opacity="0.5">
<g id="Group 210">
<path id="Vector" d="M19.9541 11.7278V7.72993C19.9541 3.94786 19.0719 3 15.5245 3H8.42961C4.88217 3 4 3.94786 4 7.72993V18.2972C4 20.7935 5.37018 21.3848 7.03128 19.6017L7.04067 19.5923C7.81022 18.7758 8.98332 18.8415 9.64964 19.7331L10.5975 21M8.22315 7.69239H15.731M9.16163 11.4463H14.7925" stroke="white" stroke-width="1.5" stroke-linecap="round" stroke-linejoin="round"/>
<path id="Vector_2" d="M17.8058 14.9831L14.4836 18.3053C14.3522 18.4367 14.2302 18.6807 14.202 18.859L14.0237 20.1259C13.958 20.5858 14.2771 20.9049 14.737 20.8392L16.0039 20.6609C16.1822 20.6327 16.4356 20.5107 16.5576 20.3793L19.8798 17.0571C20.4523 16.4846 20.7244 15.8183 19.8798 14.9737C19.0446 14.1385 18.3782 14.4106 17.8058 14.9831Z" stroke="white" stroke-width="1.5" stroke-miterlimit="10" stroke-linecap="round" stroke-linejoin="round"/>
<path id="Vector_3" d="M17.3267 15.4609C17.6082 16.4745 18.3965 17.2628 19.4101 17.5444" stroke="white" stroke-width="1.5" stroke-miterlimit="10" stroke-linecap="round" stroke-linejoin="round"/>
</g>
</g>
</svg>
