<svg width="24" height="24" viewBox="0 0 24 24" fill="none" xmlns="http://www.w3.org/2000/svg">
<g id="Iconsax/Linear/rowvertical">
<path id="Vector" d="M18.32 13.2H5.68C4.48 13.2 4 13.712 4 14.984V18.216C4 19.488 4.48 20 5.68 20H18.32C19.52 20 20 19.488 20 18.216V14.984C20 13.712 19.52 13.2 18.32 13.2ZM18.32 4H5.68C4.48 4 4 4.512 4 5.784V9.016C4 10.288 4.48 10.8 5.68 10.8H18.32C19.52 10.8 20 10.288 20 9.016V5.784C20 4.512 19.52 4 18.32 4Z" stroke="#468FC5" stroke-width="1.5" stroke-linecap="round" stroke-linejoin="round"/>
</g>
</svg>
