<svg width="24" height="24" viewBox="0 0 24 24" fill="none" xmlns="http://www.w3.org/2000/svg">
<g id="Iconsax/Linear/setting4">
<path id="Vector" d="M21 7.15H15.6M6.6 7.15H3M21 17.05H17.4M8.4 17.05H3M10.2 10.3C10.6137 10.3 11.0233 10.2185 11.4055 10.0602C11.7876 9.90192 12.1349 9.66989 12.4274 9.37739C12.7199 9.08488 12.9519 8.73763 13.1102 8.35545C13.2685 7.97328 13.35 7.56366 13.35 7.15C13.35 6.73634 13.2685 6.32672 13.1102 5.94455C12.9519 5.56237 12.7199 5.21512 12.4274 4.92261C12.1349 4.63011 11.7876 4.39808 11.4055 4.23978C11.0233 4.08148 10.6137 4 10.2 4C9.36457 4 8.56335 4.33187 7.97261 4.92261C7.38187 5.51335 7.05 6.31457 7.05 7.15C7.05 7.98543 7.38187 8.78665 7.97261 9.37739C8.56335 9.96813 9.36457 10.3 10.2 10.3ZM13.8 20.2C14.6354 20.2 15.4366 19.8681 16.0274 19.2774C16.6181 18.6866 16.95 17.8854 16.95 17.05C16.95 16.2146 16.6181 15.4134 16.0274 14.8226C15.4366 14.2319 14.6354 13.9 13.8 13.9C12.9646 13.9 12.1634 14.2319 11.5726 14.8226C10.9819 15.4134 10.65 16.2146 10.65 17.05C10.65 17.8854 10.9819 18.6866 11.5726 19.2774C12.1634 19.8681 12.9646 20.2 13.8 20.2Z" stroke="#262F3D" stroke-width="1.5" stroke-miterlimit="10" stroke-linecap="round" stroke-linejoin="round"/>
</g>
</svg>
