<svg xmlns="http://www.w3.org/2000/svg" xmlns:xlink="http://www.w3.org/1999/xlink"><symbol id="applications" viewBox="0 0 24 24"><g stroke-width="1.5" stroke-miterlimit="10" stroke-linecap="round" stroke-linejoin="round" opacity=".5"><path d="M20.2 7.5v9c0 2.7-1.35 4.5-4.5 4.5H8.5C5.35 21 4 19.2 4 16.5v-9C4 4.8 5.35 3 8.5 3h7.2c3.15 0 4.5 1.8 4.5 4.5z"/><path d="M14.35 5.25v1.8c0 .99.81 1.8 1.8 1.8h1.8M8.5 12.9h3.6m-3.6 3.6h7.2"/></g></symbol><symbol id="arrow-double-up" viewBox="0 0 24 24"><path d="M6 18.172l6-5.983 6 5.983M6 11.984l6-5.983 6 5.983" stroke-width="1.5" stroke-linecap="round" stroke-linejoin="round"/></symbol><symbol id="arrow-double" viewBox="0 0 24 24"><g stroke-width="1.5" stroke-linecap="round" stroke-linejoin="round"><path d="M18.086 18.086l-5.983-6 5.983-6M11.898 18.086l-5.984-6 5.984-6"/></g></symbol><symbol id="arrow-down" viewBox="0 0 24 24"><path d="M6 9l6 5.983L18 9" stroke-width="1.5" stroke-linecap="round" stroke-linejoin="round"/></symbol><symbol id="attach-file" viewBox="0 0 20 20"><g stroke-width="1.5" stroke-linecap="round" stroke-linejoin="round"><path d="M10.18 9.821L8.91 11.09a1.803 1.803 0 000 2.547 1.803 1.803 0 002.548 0l1.998-1.998a3.607 3.607 0 000-5.094 3.607 3.607 0 00-5.094 0L6.184 8.723a3.085 3.085 0 000 4.365"/><path d="M10 19a9 9 0 009-9 9 9 0 00-9-9 9 9 0 00-9 9 9 9 0 009 9z"/></g></symbol><symbol id="burger" viewBox="0 0 24 24"><path d="M3 7h18M3 12h18M3 17h18" stroke-width="1.5" stroke-linecap="round"/></symbol><symbol id="calendar" viewBox="0 0 24 24"><g stroke-linecap="round" stroke-linejoin="round"><path d="M8 2v3m8-3v3M3.5 9.09h17m.5-.59V17c0 3-1.5 5-5 5H8c-3.5 0-5-2-5-5V8.5c0-3 1.5-5 5-5h8c3.5 0 5 2 5 5z" stroke-width="1.5" stroke-miterlimit="10"/><path d="M15.696 13.703h.009m-.01 3h.01m-3.71-3h.01m-.01 3h.01m-3.71-3h.01m-.01 3h.01" stroke-width="2"/></g></symbol><symbol id="call-people" viewBox="0 0 20 20"><g stroke-width="1.5" stroke-linecap="round" stroke-linejoin="round"><path d="M10.108 10.7a.867.867 0 00-.216 0 2.943 2.943 0 01-2.844-2.943A2.948 2.948 0 0110 4.805a2.948 2.948 0 01.108 5.895zm5.958 5.94A8.94 8.94 0 0110 18.998a8.94 8.94 0 01-6.066-2.358c.09-.846.63-1.674 1.593-2.322 2.466-1.638 6.498-1.638 8.946 0 .963.648 1.503 1.476 1.593 2.322z"/><path d="M10 19a9 9 0 009-9 9 9 0 00-9-9 9 9 0 00-9 9 9 9 0 009 9z"/></g></symbol><symbol id="callcalling" viewBox="0 0 24 24"><g stroke-width="1.5" opacity=".5"><path d="M19.976 17.064c0 .288-.064.584-.2.872a3.3 3.3 0 01-.544.816 3.607 3.607 0 01-1.312.944c-.48.2-1 .304-1.56.304-.816 0-1.688-.192-2.608-.584-.92-.392-1.84-.92-2.752-1.584a23 23 0 01-2.624-2.24 22.732 22.732 0 01-2.232-2.616c-.656-.912-1.184-1.824-1.568-2.728C4.192 9.336 4 8.464 4 7.632c0-.544.096-1.064.288-1.544.192-.488.496-.936.92-1.336C5.72 4.248 6.28 4 6.872 4c.224 0 .448.048.648.144.208.096.392.24.536.448l1.856 2.616c.144.2.248.384.32.56.072.168.112.336.112.488 0 .192-.056.384-.168.568a2.721 2.721 0 01-.448.568l-.608.632a.428.428 0 00-.128.32c0 .064.008.12.024.184.024.064.048.112.064.16.144.264.392.608.744 1.024.36.416.744.84 1.16 1.264.432.424.848.816 1.272 1.176.416.352.76.592 1.032.736.04.016.088.04.144.064a.552.552 0 00.2.032.44.44 0 00.328-.136l.608-.6c.2-.2.392-.352.576-.448.184-.112.368-.168.568-.168.152 0 .312.032.488.104s.36.176.56.312l2.648 1.88c.208.144.352.312.44.512.08.2.128.4.128.624z" stroke-miterlimit="10"/><path d="M17.2 9.6c0-.48-.376-1.216-.936-1.816-.512-.552-1.192-.984-1.864-.984M20 9.6C20 6.504 17.496 4 14.4 4" stroke-linecap="round" stroke-linejoin="round"/></g></symbol><symbol id="check-list" viewBox="0 0 18 20"><g stroke-width="1.5" stroke-linecap="round" stroke-linejoin="round"><path d="M6.68 12.43l1.35 1.35 3.6-3.6"/><path d="M7.3 4.6h3.6c1.8 0 1.8-.9 1.8-1.8 0-1.8-.9-1.8-1.8-1.8H7.3c-.9 0-1.8 0-1.8 1.8s.9 1.8 1.8 1.8z" stroke-miterlimit="10"/><path d="M12.7 2.82c2.997.162 4.5 1.27 4.5 5.382v5.4c0 3.6-.9 5.4-5.4 5.4H6.4c-4.5 0-5.4-1.8-5.4-5.4v-5.4c0-4.104 1.503-5.22 4.5-5.382" stroke-miterlimit="10"/></g></symbol><symbol id="check" viewBox="0 0 13 10"><path d="M10.352 0L4.244 6.204 1.867 3.793 0 5.689 4.244 10l7.978-8.104L10.352 0z"/></symbol><symbol id="clock" viewBox="0 0 24 24"><g stroke-width="1.5" stroke-linecap="round" stroke-linejoin="round"><path d="M21 12c0 4.968-4.032 9-9 9s-9-4.032-9-9 4.032-9 9-9 9 4.032 9 9z"/><path d="M15.339 14.864l-2.79-1.665c-.486-.288-.882-.981-.882-1.548V7.96"/></g></symbol><symbol id="close" viewBox="0 0 24 24"><path d="M7.05 16.95l9.9-9.9m0 9.9l-9.9-9.9" stroke-width="1.5" stroke-linecap="round" stroke-linejoin="round"/></symbol><symbol id="comment" viewBox="0 0 24 24"><g stroke-width="1.5" stroke-linecap="round" stroke-linejoin="round"><path d="M8.832 18.254h-.448C4.794 18.254 3 17.357 3 12.87V8.384C3 4.794 4.795 3 8.384 3h7.178c3.59 0 5.384 1.795 5.384 5.384v4.486c0 3.59-1.795 5.384-5.384 5.384h-.448a.91.91 0 00-.718.36l-1.346 1.794c-.592.79-1.562.79-2.154 0L9.55 18.613c-.143-.197-.475-.359-.718-.359z" stroke-miterlimit="10"/><path d="M7.486 8.383h8.973m-8.973 4.486h5.384"/></g></symbol><symbol id="comments" viewBox="0 0 24 24"><path d="M8.832 18.254h-.448C4.794 18.254 3 17.357 3 12.87V8.384C3 4.794 4.795 3 8.384 3h7.178c3.59 0 5.384 1.795 5.384 5.384v4.486c0 3.59-1.795 5.384-5.384 5.384h-.448a.91.91 0 00-.718.36l-1.346 1.794c-.592.79-1.562.79-2.154 0L9.55 18.613c-.143-.197-.475-.359-.718-.359z" stroke-width="1.5" stroke-miterlimit="10" stroke-linecap="round" stroke-linejoin="round"/><path d="M7.486 8.383h8.973m-8.973 4.486h5.384" stroke-width="1.5" stroke-linecap="round" stroke-linejoin="round"/></symbol><symbol id="connect" viewBox="0 0 20 20"><g stroke-width="1.5" stroke-linecap="round" stroke-linejoin="round"><path d="M6.4 13.6H4.087C2.026 13.6 1 12.574 1 10.513V4.087C1 2.026 2.026 1 4.087 1H8.2c2.061 0 3.087 1.026 3.087 3.087"/><path d="M12.583 12.698h2.934m-1.467 1.467v-2.934m1.863 7.767H11.8c-2.061 0-3.087-1.026-3.087-3.087V9.485c0-2.06 1.026-3.087 3.087-3.087h4.113c2.06 0 3.087 1.026 3.087 3.087v6.426c0 2.061-1.026 3.087-3.087 3.087z"/></g></symbol><symbol id="danger" viewBox="0 0 24 24"><path d="M12 9.768v4.5m0 6.67H6.547c-3.123 0-4.429-2.232-2.916-4.96l2.808-5.058 2.646-4.753c1.603-2.89 4.231-2.89 5.833 0l2.647 4.762 2.808 5.058c1.512 2.728.198 4.96-2.916 4.96H12v-.009z" stroke-width="1.5" stroke-linecap="round" stroke-linejoin="round"/><path d="M11.996 16.969h.01" stroke-width="2" stroke-linecap="round" stroke-linejoin="round"/></symbol><symbol id="diagram" viewBox="0 0 24 24"><g stroke-width="1.5" stroke-miterlimit="10" stroke-linecap="round" stroke-linejoin="round" opacity=".5"><path d="M3 3v15.3C3 19.794 4.206 21 5.7 21H21"/><path d="M5.7 16.5l4.131-4.824a1.796 1.796 0 012.637-.099l.855.855a1.803 1.803 0 002.637-.099L20.1 7.5"/></g></symbol><symbol id="drop" viewBox="0 0 24 24"><path d="M12.83 3.189a.892.892 0 00-1.098 0C10.022 4.494 4.973 8.751 5 13.71 5 17.724 8.267 21 12.29 21s7.29-3.267 7.29-7.281c.01-4.887-5.049-9.216-6.75-10.53z" stroke-width="1.5" stroke-miterlimit="10"/></symbol><symbol id="edit" viewBox="0 0 24 24"><path d="M13.263 5.44l-8.21 8.69c-.31.33-.61.98-.67 1.43l-.37 3.24c-.13 1.17.71 1.97 1.87 1.77l3.22-.55c.45-.08 1.08-.41 1.39-.75l8.21-8.69c1.42-1.5 2.06-3.21-.15-5.3-2.2-2.07-3.87-1.34-5.29.16zM11.895 6.89a6.127 6.127 0 005.45 5.15" stroke-width="1.5" stroke-miterlimit="10" stroke-linecap="round" stroke-linejoin="round"/></symbol><symbol id="eye" viewBox="0 0 20 17"><g stroke-width="1.5" stroke-linecap="round" stroke-linejoin="round"><path d="M13.293 8.613A3.29 3.29 0 0110 11.906a3.29 3.29 0 01-3.293-3.293A3.29 3.29 0 0110 5.32a3.29 3.29 0 013.293 3.293z"/><path d="M10 16.222c3.247 0 6.273-1.913 8.38-5.224.827-1.297.827-3.477 0-4.774C16.272 2.914 13.246 1 10 1 6.753 1 3.727 2.913 1.62 6.224c-.827 1.297-.827 3.477 0 4.774 2.107 3.311 5.133 5.224 8.38 5.224z"/></g></symbol><symbol id="flag" viewBox="0 0 24 24"><path d="M6 3v18M6 4.8h10.08c2.43 0 2.97 1.35 1.26 3.06l-1.08 1.08c-.72.72-.72 1.89 0 2.52l1.08 1.08c1.71 1.71 1.08 3.06-1.26 3.06H6" stroke-width="1.5" stroke-miterlimit="10" stroke-linecap="round" stroke-linejoin="round"/></symbol><symbol id="infocircle" viewBox="0 0 24 24"><g stroke-linecap="round" stroke-linejoin="round"><path d="M12 8.4v4.5m0 8.1c4.95 0 9-4.05 9-9s-4.05-9-9-9-9 4.05-9 9 4.05 9 9 9z" stroke-width="1.5"/><path d="M11.996 15.602h.007" stroke-width="2"/></g></symbol><symbol id="kanban" viewBox="0 0 24 24"><path d="M10.8 18.32V5.68c0-1.2-.512-1.68-1.784-1.68H5.784C4.512 4 4 4.48 4 5.68v12.64c0 1.2.512 1.68 1.784 1.68h3.232c1.272 0 1.784-.48 1.784-1.68zm9.2-5.6V5.68C20 4.48 19.488 4 18.216 4h-3.232c-1.272 0-1.784.48-1.784 1.68v7.04c0 1.2.512 1.68 1.784 1.68h3.232c1.272 0 1.784-.48 1.784-1.68z" stroke-width="1.5" stroke-linecap="round" stroke-linejoin="round"/></symbol><symbol id="lines" viewBox="0 0 24 24"><path d="M3 7h18M6 12h12m-8 5h4" stroke-width="1.5" stroke-linecap="round"/></symbol><symbol id="link" viewBox="0 0 24 24"><g stroke-width="1.5" stroke-linecap="round" stroke-linejoin="round"><path d="M4.143 12.1A4.914 4.914 0 013 8.95C3 6.232 5.223 4 7.95 4h4.5c2.717 0 4.949 2.232 4.949 4.95 0 2.717-2.223 4.95-4.95 4.95H10.2"/><path d="M19.857 12.097A4.914 4.914 0 0121 15.247c0 2.717-2.223 4.949-4.95 4.949h-4.5c-2.717 0-4.949-2.232-4.949-4.95 0-2.717 2.223-4.95 4.95-4.95h2.25"/></g></symbol><symbol id="location" viewBox="0 0 24 24"><g stroke-width="1.5"><path d="M11.762 13.29a2.807 2.807 0 100-5.616 2.807 2.807 0 000 5.615z"/><path d="M4.219 8.842c1.773-7.795 13.323-7.786 15.087.01 1.035 4.572-1.81 8.443-4.303 10.838a4.675 4.675 0 01-6.49 0c-2.485-2.395-5.33-6.275-4.294-10.848z"/></g></symbol><symbol id="logout" viewBox="0 0 24 24"><path d="M18.163 14.77L21 11.935l-2.837-2.838M9.65 11.934h11.272m-9.055 8.8C6.968 20.734 3 17.409 3 11.867 3 6.325 6.968 3 11.867 3" stroke-width="1.5" stroke-miterlimit="10" stroke-linecap="round" stroke-linejoin="round"/></symbol><symbol id="map-icon" viewBox="0 0 24 24"><path d="M8.726 4.605v11.872m6.548-9.48v12.22M3 8.056v8.885c0 1.736 1.233 2.448 2.73 1.59l2.147-1.224c.465-.265 1.242-.292 1.726-.046l4.794 2.402c.484.237 1.26.22 1.726-.046l3.955-2.264c.502-.293.922-1.005.922-1.59V6.88c0-1.736-1.233-2.448-2.73-1.59l-2.147 1.224c-.466.265-1.242.293-1.726.046L9.603 4.166c-.484-.237-1.26-.219-1.726.046L3.922 6.477C3.411 6.769 3 7.48 3 8.057z" stroke-width="1.5" stroke-linecap="round" stroke-linejoin="round"/></symbol><symbol id="notification" viewBox="0 0 24 24"><path d="M12.398 4.773a4.775 4.775 0 00-4.771 4.772v2.298c0 .485-.207 1.225-.453 1.638L6.259 15c-.564.938-.175 1.98.86 2.33a16.637 16.637 0 0010.552 0 1.592 1.592 0 00.858-2.33l-.914-1.519c-.239-.413-.445-1.153-.445-1.638V9.545a4.785 4.785 0 00-4.772-4.772z" stroke-width="1.5" stroke-miterlimit="10" stroke-linecap="round"/><path d="M13.87 5.002a5.371 5.371 0 00-2.942 0A1.579 1.579 0 0112.398 4c.669 0 1.241.414 1.472 1.002z" stroke-width="1.5" stroke-miterlimit="10" stroke-linecap="round" stroke-linejoin="round"/><path d="M15.271 18.203c0 1.312-1.298 2.386-2.885 2.386-.79 0-1.52-.27-2.04-.7-.54-.447-.844-1.053-.846-1.686" stroke-width="1.5" stroke-miterlimit="10"/></symbol><symbol id="pausecircle" viewBox="0 0 24 24"><path d="M10.355 17.28V7.32c0-.946-.394-1.32-1.398-1.32h-2.56C5.395 6 5 6.374 5 7.32v9.96c0 .946.394 1.32 1.398 1.32h2.54c1.023 0 1.417-.374 1.417-1.32zm8.645 0V7.32C19 6.373 18.606 6 17.602 6h-2.54c-1.004 0-1.397.374-1.397 1.32v9.96c0 .946.393 1.32 1.398 1.32h2.54c1.003 0 1.397-.374 1.397-1.32z" stroke-width="1.5" stroke-linecap="round" stroke-linejoin="round"/></symbol><symbol id="people" viewBox="0 0 24 24"><path d="M16.47 14.195c1.232.207 2.59-.01 3.545-.648 1.268-.846 1.268-2.232 0-3.078-.963-.639-2.34-.855-3.573-.639m-8.945 4.365c-1.233.207-2.591-.01-3.545-.648-1.27-.846-1.27-2.232 0-3.078.963-.639 2.34-.855 3.572-.639m9.872-2.187a.544.544 0 00-.171 0 2.315 2.315 0 01-2.232-2.321 2.322 2.322 0 112.403 2.322zm-10.826 0a.545.545 0 01.171 0 2.315 2.315 0 002.232-2.321 2.322 2.322 0 00-4.643 0 2.33 2.33 0 002.24 2.321zm5.427 6.723a.545.545 0 00-.171 0 2.315 2.315 0 01-2.232-2.322 2.322 2.322 0 114.643 0c-.009 1.26-.998 2.286-2.24 2.322zM9.378 17.2c-1.269.846-1.269 2.232 0 3.078 1.44.963 3.797.963 5.237 0 1.27-.846 1.27-2.232 0-3.078-1.43-.954-3.797-.954-5.237 0z" stroke-width="1.5" stroke-linecap="round" stroke-linejoin="round" opacity=".5"/></symbol><symbol id="playcircle" viewBox="0 0 20 20"><path d="M5 9.983V7.556c0-3.023 2.136-4.258 4.752-2.747L11.86 6.03l2.107 1.22c2.616 1.512 2.616 3.983 0 5.494l-2.107 1.22-2.107 1.221C7.136 16.697 5 15.461 5 12.44V9.983z" stroke-width="1.5" stroke-miterlimit="10" stroke-linecap="round" stroke-linejoin="round"/></symbol><symbol id="plus" viewBox="0 0 24 24"><path d="M5 12h14m-7 7V5" stroke-width="1.5" stroke-linecap="round" stroke-linejoin="round"/></symbol><symbol id="profile" viewBox="0 0 24 24"><path d="M12.192 11.06c-.09-.01-.2-.01-.3 0a4.016 4.016 0 01-3.88-4.025A4.03 4.03 0 0112.048 3a4.03 4.03 0 11.145 8.059zM7.65 14.413c-2.199 1.472-2.199 3.87 0 5.333 2.499 1.672 6.596 1.672 9.095 0 2.199-1.472 2.199-3.87 0-5.333-2.49-1.663-6.587-1.663-9.095 0z" stroke-width="1.5" stroke-linecap="round" stroke-linejoin="round"/></symbol><symbol id="profilecircle" viewBox="0 0 24 24"><path d="M12.108 12.7a.867.867 0 00-.216 0 2.943 2.943 0 01-2.844-2.943A2.948 2.948 0 0112 6.805a2.948 2.948 0 01.108 5.895zm5.958 5.94A8.94 8.94 0 0112 20.998a8.94 8.94 0 01-6.066-2.358c.09-.846.63-1.674 1.593-2.322 2.466-1.638 6.498-1.638 8.946 0 .963.648 1.503 1.476 1.593 2.322z" stroke-width="1.5" stroke-linecap="round" stroke-linejoin="round"/><path d="M12 21a9 9 0 009-9 9 9 0 00-9-9 9 9 0 00-9 9 9 9 0 009 9z" stroke-width="1.5" stroke-linecap="round" stroke-linejoin="round"/></symbol><symbol id="receiptedit" viewBox="0 0 24 24"><g stroke-width="1.5" stroke-linecap="round" stroke-linejoin="round" opacity=".5"><path d="M19.954 11.728V7.73c0-3.782-.882-4.73-4.43-4.73H8.43C4.882 3 4 3.948 4 7.73v10.567c0 2.497 1.37 3.088 3.031 1.305l.01-.01c.77-.816 1.942-.75 2.609.141L10.597 21M8.223 7.692h7.508m-6.57 3.754h5.632"/><path d="M17.806 14.983l-3.322 3.322a1.157 1.157 0 00-.282.554l-.178 1.267c-.066.46.253.779.713.713l1.267-.178c.178-.028.432-.15.554-.282l3.322-3.322c.572-.572.844-1.239 0-2.083-.835-.835-1.502-.563-2.074.01zM17.327 15.46a2.99 2.99 0 002.083 2.084" stroke-miterlimit="10"/></g></symbol><symbol id="rowvertical" viewBox="0 0 24 24"><path d="M18.32 13.2H5.68c-1.2 0-1.68.512-1.68 1.784v3.232C4 19.488 4.48 20 5.68 20h12.64c1.2 0 1.68-.512 1.68-1.784v-3.232c0-1.272-.48-1.784-1.68-1.784zm0-9.2H5.68C4.48 4 4 4.512 4 5.784v3.232c0 1.272.48 1.784 1.68 1.784h12.64c1.2 0 1.68-.512 1.68-1.784V5.784C20 4.512 19.52 4 18.32 4z" stroke-width="1.5" stroke-linecap="round" stroke-linejoin="round"/></symbol><symbol id="search" viewBox="0 0 24 24"><path d="M21 21l-1.8-1.8m-7.65.9a8.551 8.551 0 100-17.102 8.551 8.551 0 000 17.102z" stroke-width="1.5" stroke-linecap="round" stroke-linejoin="round"/></symbol><symbol id="send" viewBox="0 0 24 24"><path d="M18.07 8.509l-8.56-4.28c-5.75-2.88-8.11-.52-5.23 5.23l.87 1.74c.25.51.25 1.1 0 1.61l-.87 1.73c-2.88 5.75-.53 8.11 5.23 5.23l8.56-4.28c3.84-1.92 3.84-5.06 0-6.98zm-3.23 4.24h-5.4c-.41 0-.75-.34-.75-.75s.34-.75.75-.75h5.4c.41 0 .75.34.75.75s-.34.75-.75.75z" opacity=".3"/></symbol><symbol id="setting" viewBox="0 0 24 24"><path d="M21 7.15h-5.4m-9 0H3m18 9.9h-3.6m-9 0H3m7.2-6.75a3.15 3.15 0 100-6.3 3.15 3.15 0 000 6.3zm3.6 9.9a3.15 3.15 0 100-6.3 3.15 3.15 0 000 6.3z" stroke-width="1.5" stroke-miterlimit="10" stroke-linecap="round" stroke-linejoin="round"/></symbol><symbol id="setting2" viewBox="0 0 24 24"><path d="M12 15a3 3 0 100-6 3 3 0 000 6z" stroke-width="1.5" stroke-miterlimit="10" stroke-linecap="round" stroke-linejoin="round"/><path d="M3 13.282V11.7c0-.935.765-1.709 1.71-1.709 1.627 0 2.293-1.151 1.474-2.564a1.708 1.708 0 01.63-2.33l1.556-.89c.711-.423 1.629-.171 2.051.54l.1.17c.809 1.413 2.14 1.413 2.959 0l.099-.17c.422-.711 1.34-.963 2.05-.54l1.557.89a1.708 1.708 0 01.63 2.33c-.819 1.413-.153 2.564 1.475 2.564.935 0 1.709.765 1.709 1.71v1.582c0 .936-.765 1.71-1.71 1.71-1.627 0-2.293 1.15-1.474 2.563a1.706 1.706 0 01-.63 2.33l-1.556.89c-.711.423-1.629.172-2.051-.54l-.1-.17c-.809-1.412-2.14-1.412-2.959 0l-.099.17c-.422.712-1.34.963-2.05.54l-1.557-.89a1.708 1.708 0 01-.63-2.33c.819-1.412.153-2.563-1.475-2.563-.944 0-1.709-.774-1.709-1.71z" stroke-width="1.5" stroke-miterlimit="10" stroke-linecap="round" stroke-linejoin="round"/></symbol><symbol id="share-icon" viewBox="0 0 24 24"><g stroke-width="1.5" stroke-linecap="round" stroke-linejoin="round"><path d="M13.5 12c0 3.18-2.57 5.75-5.75 5.75S2 15.18 2 12s2.57-5.75 5.75-5.75"/><path d="M10 12c0-3.31 2.69-6 6-6s6 2.69 6 6-2.69 6-6 6"/></g></symbol><symbol id="task" viewBox="0 0 24 24"><path d="M11 19.5h10m-10-7h10m-10-7h10m-18 0l1 1 3-3m-4 9l1 1 3-3m-4 9l1 1 3-3" stroke-width="1.5" stroke-linecap="round" stroke-linejoin="round" opacity=".5"/></symbol><symbol id="timer" viewBox="0 0 18 20"><g stroke-width="1.5" stroke-linecap="round" stroke-linejoin="round"><path d="M8.875 19A7.878 7.878 0 011 11.125 7.878 7.878 0 018.875 3.25a7.878 7.878 0 017.875 7.875M8.875 6.4v4.5"/><path d="M6.176 1h5.4" stroke-miterlimit="10"/><path d="M15.175 14.5v3.6m-2.7-3.6v3.6"/></g></symbol><symbol id="trash" viewBox="0 0 24 24"><path d="M19.4 7.184a81.361 81.361 0 00-8.016-.4c-1.584 0-3.168.08-4.752.24L5 7.184m4.4-.808l.176-1.048C9.704 4.568 9.8 4 11.152 4h2.096c1.352 0 1.456.6 1.576 1.336L15 6.376m2.68 3.336l-.52 8.056C17.072 19.024 17 20 14.768 20H9.632c-2.232 0-2.304-.976-2.392-2.232l-.52-8.056m4.144 5.888h2.664M10.2 12.4h4" stroke-width="1.5" stroke-linecap="round" stroke-linejoin="round"/></symbol><symbol id="view-icon-bottom" viewBox="0 0 24 24"><path d="M20 18.32V5.68C20 4.48 19.482 4 18.193 4H5.807C4.518 4 4 4.48 4 5.68v12.64c0 1.2.518 1.68 1.807 1.68h12.386C19.481 20 20 19.52 20 18.32z" stroke-width="1.5" stroke-linecap="round" stroke-linejoin="round"/><rect x="6" y="12" width="12" height="6" rx="1"/></symbol><symbol id="view-icon-right" viewBox="0 0 24 24"><path d="M20 18.32V5.68C20 4.48 19.482 4 18.193 4H5.807C4.518 4 4 4.48 4 5.68v12.64c0 1.2.518 1.68 1.807 1.68h12.386C19.481 20 20 19.52 20 18.32z" stroke-width="1.5" stroke-linecap="round" stroke-linejoin="round"/><rect x="12" y="6" width="6" height="12" rx="1"/></symbol><symbol id="works" viewBox="0 0 20 20"><g stroke-width="1.5" stroke-linecap="round" stroke-linejoin="round"><path d="M10.332 7.194h4.725m-10.116 0l.675.675 2.025-2.025m2.691 7.65h4.725m-10.116 0l.675.675 2.025-2.025"/><path d="M7.3 19h5.4c4.5 0 6.3-1.8 6.3-6.3V7.3C19 2.8 17.2 1 12.7 1H7.3C2.8 1 1 2.8 1 7.3v5.4C1 17.2 2.8 19 7.3 19z"/></g></symbol></svg>